Coordinates
nRows=7
nColumns=34

# SIMM Motion File Header:
name Coordinates
datacolumns 34
datarows 7
otherdata 1
range 0.99500000000000011000 1.00100000000000010000
endheader
time	pelvis_tz	pelvis_tx	pelvis_ty	pelvis_tilt	pelvis_list	pelvis_rotation	hip_flexion_r	hip_adduction_r	hip_rotation_r	knee_r_tx	knee_r_ty	knee_angle_r	tib_pat_r_tx	tib_pat_r_ty	tib_pat_r_r1	ankle_angle_r	subtalar_angle_r	mtp_angle_r	hip_flexion_l	hip_adduction_l	hip_rotation_l	knee_l_tx	knee_l_ty	knee_angle_l	tib_pat_l_tx	tib_pat_l_ty	tib_pat_l_r1	ankle_angle_l	subtalar_angle_l	mtp_angle_l	lumbar_extension	lumbar_bending	lumbar_rotation
      0.99500000000000011000	      0.04896237064969709300	      0.59162650810126172000	      1.04502822780079390000	      5.20894251869260930000	     -0.12662064823329602000	      0.33897902312270523000	     -2.60037685646729690000	      2.12475373679815550000	     -3.88258222937306960000	     -0.00316157729387519720	     -0.45517444979672134000	    -11.76579432102353500000	      0.04756794866143960300	     -0.02196052560871830300	     10.21410015869006000000	      7.85784984083877450000	     -0.00000000000000105048	     -0.00000000000003232304	     18.08804570479968300000	     -3.38671095665970020000	     -4.26204925827000820000	      0.00461859119917837870	     -0.46483801701641381000	    -58.77769193985305000000	      0.03798006398711581400	     -0.02020537643851962100	     17.37043814910339600000	      1.80896352712278350000	     -0.00000000000000260697	     -0.00000000000002186187	    -16.23542229964695900000	      1.96749397190231970000	      0.68012219930660056000
      0.99600000000000000000	      0.04904370885733777600	      0.59149582521473176000	      1.04506354715730910000	      5.21063291372245980000	     -0.12276018043942952000	      0.32096750333726243000	     -2.68900720192997070000	      2.12614313945578860000	     -3.87222219263084710000	     -0.00317319383734917210	     -0.45516926581054407000	    -11.71564894004353600000	      0.04757558694079731800	     -0.02196276814169745300	     10.18547397255068400000	      7.87257870283289660000	     -0.00000000000000109059	     -0.00000000000003242288	     18.14569927247190900000	     -3.37853663678772250000	     -4.29121753655363400000	      0.00460194472736267370	     -0.46477232778194383000	    -58.55506375717821000000	      0.03803753960321756800	     -0.02021259004109599400	     17.36522986471169700000	      1.81019271816022620000	     -0.00000000000000275210	     -0.00000000000002215643	    -16.24555591187549200000	      1.95416814994453510000	      0.70262159507448518000
      0.99700000000000011000	      0.04912504706497848600	      0.59136514232820170000	      1.04509886651382410000	      5.21232330875230950000	     -0.11889971264556215000	      0.30295598355181563000	     -2.77763754739266490000	      2.12753254211342210000	     -3.86186215588862240000	     -0.00318481038082314960	     -0.45516408182436680000	    -11.66550355906352500000	      0.04758322522015503300	     -0.02196501067467659900	     10.15684778641130000000	      7.88730756482702230000	     -0.00000000000000113070	     -0.00000000000003252272	     18.20335284014414900000	     -3.37036231691574310000	     -4.32038581483726780000	      0.00458529825554696530	     -0.46470663854747379000	    -58.33243557450331500000	      0.03809501521931933600	     -0.02021980364367237000	     17.36002158031999100000	      1.81142190919766910000	     -0.00000000000000289723	     -0.00000000000002245099	    -16.25568952410402800000	      1.94084232798674770000	      0.72512099084237469000
      0.99800000000000000000	      0.04920525166265889100	      0.59123402798243752000	      1.04513178370025490000	      5.21394636060598420000	     -0.11603486216238376000	      0.28539879626030534000	     -2.86603011005328990000	      2.12974238925766280000	     -3.85232071447960010000	     -0.00319644991889821840	     -0.45515888118874231000	    -11.61508071650737500000	      0.04759092764387224500	     -0.02196727936270994800	     10.12785416594936500000	      7.89100685985190080000	     -0.00000000000000118385	     -0.00000000000003259076	     18.25932175643987400000	     -3.36400111035753600000	     -4.35136550750338370000	      0.00456772807046890860	     -0.46463988280407670000	    -58.10531197159772900000	      0.03815347971544573400	     -0.02022717417835173000	     17.35450242934690100000	      1.80982440075465130000	     -0.00000000000000305217	     -0.00000000000002277572	    -16.26578089093976600000	      1.92864478281935820000	      0.74720986829609426000
      0.99900000000000011000	      0.04928507839035256600	      0.59110276981692855000	      1.04516390016332420000	      5.21554696473426740000	     -0.11350188411609985000	      0.26799305313343486000	     -2.95434341177991880000	      2.13222571789743930000	     -3.84305213818164180000	     -0.00320809712184032130	     -0.45515367500330201000	    -11.56456538675916500000	      0.04759865144904262800	     -0.02196955676909469500	     10.09873806737990500000	      7.89102963255370950000	     -0.00000000000000124134	     -0.00000000000003264820	     18.31472912227678100000	     -3.35824427490391650000	     -4.38294900496366860000	      0.00454984998097006460	     -0.46457277155770388000	    -57.87668989528184900000	      0.03821227383824702500	     -0.02023459702373208900	     17.34887965618001000000	      1.80728465915148260000	     -0.00000000000000321038	     -0.00000000000002311050	    -16.27585817597790200000	      1.91682332991543030000	      0.76916190631176407000
      1.00000000000000000000	      0.04936460491618829100	      0.59097139783128472000	      1.04519516814792750000	      5.21708035632463570000	     -0.11120386967809545000	      0.25070070672519601000	     -3.04250963907019220000	      2.13489716873819460000	     -3.83393487261282530000	     -0.00321971585356111730	     -0.45514847942784753000	    -11.51411862839852400000	      0.04760637149516752000	     -0.02197183526428237200	     10.06959869006207800000	      7.88981219174387420000	     -0.00000000000000130392	     -0.00000000000003269164	     18.36967578995274800000	     -3.35295774377404680000	     -4.41510146206028420000	      0.00453168630311613990	     -0.46450534897719203000	    -57.64672437007903500000	      0.03827135922161414200	     -0.02024206741317871600	     17.34315758510738400000	      1.80378797188320930000	     -0.00000000000000336061	     -0.00000000000002345255	    -16.28586675184305200000	      1.90526060326074600000	      0.79099617298999236000
      1.00100000000000010000	      0.04944323083645027500	      0.59083968438523593000	      1.04522389069713210000	      5.21841211030126400000	     -0.10961074606492462000	      0.23374855047283552000	     -3.13023464305147980000	      2.13813298618188790000	     -3.82527153923142430000	     -0.00323124917161800310	     -0.45514331568235039000	    -11.46387758420054600000	      0.04761408026415594300	     -0.02197411702587883200	     10.04038947649912400000	      7.88487411039912180000	     -0.00000000000000138175	     -0.00000000000003269306	     18.42324036314596500000	     -3.34908212561541600000	     -4.44896079806591780000	      0.00451266586019695780	     -0.46443699239426300000	    -57.41272849821523000000	      0.03833131838667877500	     -0.02024968043482415100	     17.33713762031753800000	      1.79742044761963030000	     -0.00000000000000348686	     -0.00000000000002381638	    -16.29566920018924800000	      1.89447405535378000000	      0.81247712565591657000
